STARTFONT 2.1
COMMENT This font image translated from Metafont
COMMENT Input file was ``bnr10''
COMMENT DPI was ``210'', usermag ``1000'', blackness ``3''
COMMENT shrink was 1
FONT -*-bengali-medium-r-*-*-*-210-*-*-*-*-*-fontspecific
SIZE 10 210 210
FONTBOUNDINGBOX 53 37 -17 -9
STARTPROPERTIES 4
FONT_ASCENT 28
FONT_DESCENT 4
COPYRIGHT "GNU General Public License"
_XMBDFED_INFO "Edited with xmbdfed 4.5."
ENDPROPERTIES
CHARS 249
STARTCHAR C001
ENCODING 1
SWIDTH 514 0
DWIDTH 15 0
BBX 18 27 -2 -2
BITMAP
800000
800000
7FF000
000C00
000200
000100
000100
3FFFC0
010000
010000
03F800
078400
070200
000200
000200
000600
000C00
083800
07E000
030000
00C000
002000
001000
000C00
000200
000100
000080
ENDCHAR
STARTCHAR C002
ENCODING 2
SWIDTH 582 0
DWIDTH 17 0
BBX 19 25 -1 0
BITMAP
800000
400000
3FF800
000600
000100
000080
000080
7FFFE0
100000
080000
1F0000
1C8000
1C4380
1C4700
005F00
007200
00E200
01C200
030200
0E0200
180200
000200
000200
000200
000100
ENDCHAR
STARTCHAR C003
ENCODING 3
SWIDTH 582 0
DWIDTH 17 0
BBX 21 24 -3 1
BITMAP
800000
600000
1FFC00
000380
000040
000020
000020
1FFFF8
001000
081000
081000
081000
081080
0811C0
041340
041E20
041C20
020020
020020
010020
018040
00E1C0
007F80
001E00
ENDCHAR
STARTCHAR C004
ENCODING 4
SWIDTH 651 0
DWIDTH 19 0
BBX 21 24 -1 1
BITMAP
800000
400000
3FFC00
000380
000040
000020
000020
7FFFF8
001000
201000
241000
241000
241000
1410C0
1413C0
121F20
0A1C20
0A0020
050020
070020
038040
01C1C0
00FF80
003E00
ENDCHAR
STARTCHAR C005
ENCODING 5
SWIDTH 720 0
DWIDTH 21 0
BBX 17 18 2 0
BITMAP
E19080
E3D080
E67080
7CF080
3B9080
061080
1C1080
301080
601080
701080
081080
061880
011480
009280
005180
005080
003000
003000
ENDCHAR
STARTCHAR C006
ENCODING 6
SWIDTH 651 0
DWIDTH 19 0
BBX 15 18 2 0
BITMAP
003C
00E2
0182
0302
0202
0602
4582
87C2
83C2
8182
8002
8002
4002
7FF2
3FFE
000E
0002
0002
ENDCHAR
STARTCHAR C007
ENCODING 7
SWIDTH 754 0
DWIDTH 22 0
BBX 19 27 2 0
BITMAP
020000
060000
040000
040000
060000
038000
01FE00
007F80
0001C0
007860
01C420
030420
020420
060440
0404C0
458780
87C700
83C400
818400
800400
800400
400400
7FE400
3FFC00
001C00
000400
000400
ENDCHAR
STARTCHAR C008
ENCODING 8
SWIDTH 582 0
DWIDTH 17 0
BBX 14 17 1 1
BITMAP
01F0
07F8
8E0C
9E04
9E04
9E0C
8078
40F0
40F8
4068
2004
2004
1004
180C
0E18
07F0
01E0
ENDCHAR
STARTCHAR C014
ENCODING 14
SWIDTH 308 0
DWIDTH 9 0
BBX 10 18 0 0
BITMAP
FFC0
0600
0C00
0C00
0C00
0C00
0C00
0C00
0C00
0C00
0C00
0C00
0C00
0C00
0C00
1800
1800
7000
ENDCHAR
STARTCHAR C015
ENCODING 15
SWIDTH 0 0
DWIDTH 0 0
BBX 15 7 -17 -3
BITMAP
8000
8002
8002
4002
7FFE
3FFE
0002
ENDCHAR
STARTCHAR C016
ENCODING 16
SWIDTH 582 0
DWIDTH 17 0
BBX 18 20 0 -2
BITMAP
FFFFC0
030E00
038700
078300
05C300
6CE300
787E00
01F800
03C400
03C200
038200
000200
000600
020C00
01F800
006000
001000
000C00
000200
000100
ENDCHAR
STARTCHAR C017
ENCODING 17
SWIDTH 617 0
DWIDTH 18 0
BBX 19 19 0 -1
BITMAP
FFFFE0
038380
038180
03C180
03C180
02E180
767180
3C3F00
000100
000100
03E100
0FF900
1F1D00
1F0700
1F0300
0E0100
000100
000100
000100
ENDCHAR
STARTCHAR C018
ENCODING 18
SWIDTH 1131 0
DWIDTH 33 0
BBX 34 19 0 0
BITMAP
0000000200
FFFE0F83C0
0387386200
0383E01200
03C3E03A00
02E310E600
3673098200
3C3E0B0200
00000E0200
00001C0200
0000100200
0000000200
0000000200
0000000200
0000000200
0000000200
0000000200
0000000200
0000000200
ENDCHAR
STARTCHAR C019
ENCODING 19
SWIDTH 1131 0
DWIDTH 33 0
BBX 34 19 0 0
BITMAP
0000000200
FFFE0F83C0
0387386200
0383E01200
03C3E03A00
02E310E600
3673098200
3C3E0B0200
00000E0200
00001C0200
0000100200
00000F0200
000010BA00
0000204600
00003C0200
00003C0200
00001C0200
0000000200
0000000200
ENDCHAR
STARTCHAR C020
ENCODING 20
SWIDTH 1028 0
DWIDTH 30 0
BBX 31 18 0 0
BITMAP
FFFFFFFE
03860000
03870000
03C301E0
02E301F0
36738110
3C3E4108
00004108
0000C108
00008178
00018170
00030170
00038100
00006100
00001900
00000500
00000300
00000100
ENDCHAR
STARTCHAR C021
ENCODING 21
SWIDTH 617 0
DWIDTH 18 0
BBX 19 18 0 0
BITMAP
FFFFE0
038380
038180
03C180
03C180
02E180
767180
3C3F00
000700
003D00
00E100
038100
038100
00E100
003900
000D00
000700
000300
ENDCHAR
STARTCHAR C022
ENCODING 22
SWIDTH 754 0
DWIDTH 22 0
BBX 23 19 0 -1
BITMAP
FFFFFE
038310
038390
03C190
03C190
02E190
767190
3C3F10
000210
000210
000F10
001F90
001FD0
001F70
000E30
000010
000010
000010
000010
ENDCHAR
STARTCHAR C023
ENCODING 23
SWIDTH 617 0
DWIDTH 18 0
BBX 19 18 0 0
BITMAP
FFFFE0
038380
038180
03C180
03C180
02E180
767180
3C3F00
000100
000100
078100
085D00
102300
1E2100
1E0100
0E0100
000100
000100
ENDCHAR
STARTCHAR C024
ENCODING 24
SWIDTH 514 0
DWIDTH 15 0
BBX 16 20 0 -2
BITMAP
FFFF
0400
07C0
0E20
1E10
1C10
0010
0030
1060
0FC0
0300
00C0
0020
0F98
1854
3030
3810
1810
0010
0010
ENDCHAR
STARTCHAR C025
ENCODING 25
SWIDTH 754 0
DWIDTH 22 0
BBX 23 18 0 0
BITMAP
FFFFFE
000400
000400
003C00
00E5E0
0185F0
0605F0
0C0410
100410
300420
0C07C0
030400
008400
004400
002400
031400
030C00
000400
ENDCHAR
STARTCHAR C026
ENCODING 26
SWIDTH 685 0
DWIDTH 20 0
BBX 21 18 0 0
BITMAP
FFFFF8
000400
000400
003C00
00E400
018780
060640
0C0440
100440
300440
0C0440
030440
008440
004440
002440
031440
030C40
000400
ENDCHAR
STARTCHAR C027
ENCODING 27
SWIDTH 548 0
DWIDTH 16 0
BBX 17 20 0 -2
BITMAP
FFFF80
000000
000000
1F3800
38A800
3C6400
3C4400
180400
000400
000C00
001800
307000
0FC000
060000
018000
006000
001000
000C00
000200
000100
ENDCHAR
STARTCHAR C028
ENCODING 28
SWIDTH 651 0
DWIDTH 19 0
BBX 20 20 0 -2
BITMAP
FFFFF0
040000
040000
0FE000
1E1000
1C0F00
000C80
000880
001880
003080
20E080
1F8080
0C0080
020080
018080
004080
002080
001880
000400
000200
ENDCHAR
STARTCHAR C029
ENCODING 29
SWIDTH 685 0
DWIDTH 20 0
BBX 16 18 2 0
BITMAP
0F88
1FEC
307C
BE1A
BF0A
8102
8102
831E
863C
443E
401A
4001
2001
3001
1803
0E0E
07FC
01F0
ENDCHAR
STARTCHAR C030
ENCODING 30
SWIDTH 720 0
DWIDTH 21 0
BBX 17 18 2 0
BITMAP
F1E400
FBF600
8E1600
8F0D00
9F8900
BFC100
B9C100
400F00
401E00
401F00
200D00
200080
100080
180080
0C0180
070700
03FE00
00F800
ENDCHAR
STARTCHAR C031
ENCODING 31
SWIDTH 651 0
DWIDTH 19 0
BBX 20 18 0 0
BITMAP
FFFFF0
080000
040000
1FC000
3E2700
3C1880
001380
001380
001380
003380
106000
0FC000
020000
018000
004000
002000
001000
000800
ENDCHAR
STARTCHAR C032
ENCODING 32
SWIDTH 411 0
DWIDTH 12 0
BBX 0 0 0 0
BITMAP
ENDCHAR
STARTCHAR C033
ENCODING 33
SWIDTH 582 0
DWIDTH 17 0
BBX 4 23 11 -3
BITMAP
60
60
60
60
60
60
60
60
60
60
60
60
60
60
60
60
60
00
00
00
F0
F0
F0
ENDCHAR
STARTCHAR C034
ENCODING 34
SWIDTH 445 0
DWIDTH 13 0
BBX 9 11 2 13
BITMAP
6300
F780
F780
F780
7380
1080
3180
2100
6300
C600
8400
ENDCHAR
STARTCHAR C035
ENCODING 35
SWIDTH 548 0
DWIDTH 16 0
BBX 13 22 2 -4
BITMAP
0660
0440
0440
0440
0440
0440
0CC0
0880
FFF8
0880
0880
1980
1100
FFF8
1100
1100
3300
2200
2200
2200
2200
2200
ENDCHAR
STARTCHAR C036
ENCODING 36
SWIDTH 651 0
DWIDTH 19 0
BBX 15 26 2 -2
BITMAP
0080
0080
0080
0180
0100
0100
0300
0200
0200
0600
0400
0400
0C00
0800
08FE
1800
1000
1000
3000
2000
2000
2000
6000
4000
4000
C000
ENDCHAR
STARTCHAR C037
ENCODING 37
SWIDTH 685 0
DWIDTH 20 0
BBX 16 26 2 -2
BITMAP
3002
5802
4C0E
87F4
840C
8408
8410
8430
8420
8460
4840
48C0
3080
0180
010C
0312
0212
0621
0421
0C21
1821
1021
3021
2012
6012
400C
ENDCHAR
STARTCHAR C038
ENCODING 38
SWIDTH 480 0
DWIDTH 14 0
BBX 13 20 2 -2
BITMAP
7C78
F240
E140
0140
0340
8640
7C40
1040
0C40
0240
0140
00C0
03C0
0E40
1840
3840
0E40
0340
01C0
00C0
ENDCHAR
STARTCHAR C039
ENCODING 39
SWIDTH 308 0
DWIDTH 9 0
BBX 5 11 2 13
BITMAP
70
F8
F8
F8
78
08
18
10
30
60
40
ENDCHAR
STARTCHAR C040
ENCODING 40
SWIDTH 274 0
DWIDTH 8 0
BBX 5 29 2 -6
BITMAP
08
08
10
30
30
20
60
60
60
40
C0
C0
C0
C0
C0
C0
C0
C0
C0
C0
40
60
60
20
30
10
10
08
08
ENDCHAR
STARTCHAR C041
ENCODING 41
SWIDTH 274 0
DWIDTH 8 0
BBX 6 29 1 -6
BITMAP
80
C0
40
60
60
30
30
38
38
18
1C
1C
1C
1C
1C
1C
1C
1C
1C
1C
18
38
38
30
70
60
40
C0
80
ENDCHAR
STARTCHAR C042
ENCODING 42
SWIDTH 480 0
DWIDTH 14 0
BBX 10 15 2 9
BITMAP
0400
0400
0400
8440
C4C0
7780
1E00
0C00
1E00
7780
C4C0
8440
0400
0400
0400
ENDCHAR
STARTCHAR C043
ENCODING 43
SWIDTH 685 0
DWIDTH 20 0
BBX 18 18 1 0
BITMAP
004000
004000
004000
004000
004000
004000
004000
004000
004000
FFFFC0
004000
004000
004000
004000
004000
004000
004000
004000
ENDCHAR
STARTCHAR C044
ENCODING 44
SWIDTH 342 0
DWIDTH 10 0
BBX 4 10 4 -6
BITMAP
60
F0
F0
70
10
10
30
20
60
40
ENDCHAR
STARTCHAR C045
ENCODING 45
SWIDTH 342 0
DWIDTH 10 0
BBX 10 2 0 7
BITMAP
FFC0
FFC0
ENDCHAR
STARTCHAR C046
ENCODING 46
SWIDTH 514 0
DWIDTH 15 0
BBX 1 18 12 0
BITMAP
80
80
80
80
80
80
80
80
80
80
80
80
80
80
80
80
80
80
ENDCHAR
STARTCHAR C047
ENCODING 47
SWIDTH 308 0
DWIDTH 9 0
BBX 7 22 1 -4
BITMAP
02
02
02
06
04
04
0C
08
08
18
10
10
30
20
20
20
60
40
40
C0
80
80
ENDCHAR
STARTCHAR C048
ENCODING 48
SWIDTH 548 0
DWIDTH 16 0
BBX 14 14 1 2
BITMAP
0FC0
3FF0
7038
4008
C004
8004
8004
8004
8004
800C
4008
7038
3FF0
0FC0
ENDCHAR
STARTCHAR C049
ENCODING 49
SWIDTH 548 0
DWIDTH 16 0
BBX 12 17 2 1
BITMAP
4000
C000
8000
C000
7000
3800
0E00
0780
01C0
0060
0020
0010
0010
0F10
1FB0
1FE0
0FC0
ENDCHAR
STARTCHAR C050
ENCODING 50
SWIDTH 548 0
DWIDTH 16 0
BBX 12 19 2 -1
BITMAP
2000
6000
3000
1800
0600
0180
0060
0030
0030
8060
E0C0
7F00
1800
0E00
0300
0080
0040
0020
0010
ENDCHAR
STARTCHAR C051
ENCODING 51
SWIDTH 548 0
DWIDTH 16 0
BBX 14 14 1 1
BITMAP
8000
8000
81E0
83F0
43D8
4188
4004
2004
2004
1004
1808
0E18
07F0
01E0
ENDCHAR
STARTCHAR C052
ENCODING 52
SWIDTH 548 0
DWIDTH 16 0
BBX 12 18 2 0
BITMAP
0F80
30E0
4030
8010
8010
8010
C020
70C0
1F00
0F80
30E0
4030
8010
8010
8010
C020
70C0
1F00
ENDCHAR
STARTCHAR C053
ENCODING 53
SWIDTH 548 0
DWIDTH 16 0
BBX 14 18 1 0
BITMAP
0300
0700
0D00
1880
3060
201C
6018
4030
C060
8040
80C0
8080
8080
4080
4080
2040
1840
07F0
ENDCHAR
STARTCHAR C054
ENCODING 54
SWIDTH 548 0
DWIDTH 16 0
BBX 14 16 1 1
BITMAP
0C00
0C00
8200
8200
8200
8218
4278
41E4
4184
0004
2004
2004
1008
1838
0FF0
07C0
ENDCHAR
STARTCHAR C055
ENCODING 55
SWIDTH 548 0
DWIDTH 16 0
BBX 12 18 2 0
BITMAP
1F00
3080
6040
C040
8040
8040
8060
7FE0
0040
0040
0040
0020
0020
0020
0020
0020
0020
0010
ENDCHAR
STARTCHAR C056
ENCODING 56
SWIDTH 548 0
DWIDTH 16 0
BBX 14 17 1 1
BITMAP
8000
4000
4000
4000
4000
4000
4004
7F7C
40C0
4040
4040
4040
4080
4080
4100
4600
3800
ENDCHAR
STARTCHAR C057
ENCODING 57
SWIDTH 548 0
DWIDTH 16 0
BBX 13 18 2 0
BITMAP
8000
8000
8000
C000
6000
3800
0E00
0380
00E0
0030
0018
0008
3E08
4308
E188
F088
F090
60E0
ENDCHAR
STARTCHAR C058
ENCODING 58
SWIDTH 411 0
DWIDTH 12 0
BBX 5 14 5 2
BITMAP
70
F8
F8
F8
70
00
00
00
00
00
70
F8
F8
70
ENDCHAR
STARTCHAR C059
ENCODING 59
SWIDTH 342 0
DWIDTH 10 0
BBX 4 16 4 -6
BITMAP
60
F0
F0
60
00
00
60
F0
F0
70
10
10
30
20
60
40
ENDCHAR
STARTCHAR C060
ENCODING 60
SWIDTH 754 0
DWIDTH 22 0
BBX 9 18 11 0
BITMAP
8080
8080
8080
8080
8080
8080
8080
8080
8080
8080
8080
8080
8080
8080
8080
8080
8080
8080
ENDCHAR
STARTCHAR C061
ENCODING 61
SWIDTH 685 0
DWIDTH 20 0
BBX 17 8 2 4
BITMAP
FFFF80
000000
000000
000000
000000
000000
000000
FFFF80
ENDCHAR
STARTCHAR C062
ENCODING 62
SWIDTH 514 0
DWIDTH 15 0
BBX 16 20 0 -2
BITMAP
FFFF
0400
07C0
0E20
1E10
1C10
0010
0030
1060
0FC0
0300
00C0
0020
0018
00F4
0390
0710
01D0
0070
0030
ENDCHAR
STARTCHAR C063
ENCODING 63
SWIDTH 788 0
DWIDTH 23 0
BBX 10 22 11 -2
BITMAP
3F00
6080
E040
F040
F040
6040
00C0
0080
0180
0300
0600
0400
0400
0400
0400
0400
0000
0000
0C00
1E00
1E00
0C00
ENDCHAR
STARTCHAR C064
ENCODING 64
SWIDTH 651 0
DWIDTH 19 0
BBX 20 20 0 -2
BITMAP
FFFFF0
004000
004000
1E4000
7F4000
71C000
70C3C0
704E80
007880
006080
004080
000180
000780
001C80
003080
001C80
000680
000380
000180
000080
ENDCHAR
STARTCHAR C065
ENCODING 65
SWIDTH 308 0
DWIDTH 9 0
BBX 10 19 0 0
BITMAP
0800
8FC0
6800
1800
1800
0800
0800
0800
0800
0800
0800
0800
0800
0800
0800
0800
0800
0800
0800
ENDCHAR
STARTCHAR C066
ENCODING 66
SWIDTH 514 0
DWIDTH 15 0
BBX 12 18 2 0
BITMAP
0F00
3180
6080
B080
9F00
8000
8000
8000
C000
6000
3800
0E00
0300
01C0
0060
0030
0010
0010
ENDCHAR
STARTCHAR C067
ENCODING 67
SWIDTH 548 0
DWIDTH 16 0
BBX 17 20 0 -2
BITMAP
FFFF80
200000
200000
300000
2E0000
21F000
208800
218400
270400
3C0C00
001800
00F000
1F8000
030000
00C000
003000
000800
000400
000200
000100
ENDCHAR
STARTCHAR C068
ENCODING 68
SWIDTH 582 0
DWIDTH 17 0
BBX 18 17 0 1
BITMAP
FFFFC0
008000
408000
408000
408000
408400
408E00
209A00
20F100
20E100
100100
100100
080100
0C0200
070E00
03FC00
00F000
ENDCHAR
STARTCHAR C069
ENCODING 69
SWIDTH 308 0
DWIDTH 9 0
BBX 14 26 -4 -1
BITMAP
8000
4000
3F00
00E0
0010
0008
0008
0FFC
0010
0020
0040
0080
0080
0100
0100
0200
0200
0200
0200
0200
0200
0100
0100
009C
007C
001C
ENDCHAR
STARTCHAR C070
ENCODING 70
SWIDTH 548 0
DWIDTH 16 0
BBX 17 18 0 0
BITMAP
FFFF80
600400
180400
040400
020400
018400
034400
063400
0C0C00
180400
380400
060400
018400
004400
002400
001400
000C00
000400
ENDCHAR
STARTCHAR C071
ENCODING 71
SWIDTH 548 0
DWIDTH 16 0
BBX 17 18 0 0
BITMAP
FFFF80
300400
200400
200400
200400
108400
0F8400
030400
060400
0C0400
180400
1C0400
030400
00C400
002400
001400
000C00
000400
ENDCHAR
STARTCHAR C072
ENCODING 72
SWIDTH 342 0
DWIDTH 10 0
BBX 6 16 2 2
BITMAP
78
C4
84
84
8C
78
00
00
00
00
78
C4
84
84
8C
78
ENDCHAR
STARTCHAR C073
ENCODING 73
SWIDTH 240 0
DWIDTH 7 0
BBX 21 26 -13 0
BITMAP
1FE000
601C00
800200
800100
600080
1FE080
001040
001040
0013F8
000040
000040
000040
000040
000040
000040
000040
000040
000040
000040
000040
000040
000040
000040
000040
000040
000040
ENDCHAR
STARTCHAR C074
ENCODING 74
SWIDTH 685 0
DWIDTH 20 0
BBX 21 19 0 0
BITMAP
000040
FFF878
000840
000840
003840
00C840
010840
060840
080840
100840
180840
040840
030C40
008A40
004940
0028C0
001840
001800
000800
ENDCHAR
STARTCHAR C075
ENCODING 75
SWIDTH 617 0
DWIDTH 18 0
BBX 18 20 1 -1
BITMAP
000200
0183C0
03E200
667200
FC1200
F81200
601200
003200
00E200
0FC200
1F0200
1F0200
01C200
00E200
003200
001A00
000E00
000600
000200
000200
ENDCHAR
STARTCHAR C076
ENCODING 76
SWIDTH 754 0
DWIDTH 22 0
BBX 23 18 0 0
BITMAP
FFFFFE
100100
100100
3C0100
7B03F0
78FF10
304110
004110
004110
004110
01C110
03F910
03C510
018310
000310
000110
000110
000100
ENDCHAR
STARTCHAR C077
ENCODING 77
SWIDTH 411 0
DWIDTH 12 0
BBX 8 18 3 0
BITMAP
78
C4
84
84
8C
78
00
00
80
C0
60
30
18
0C
06
02
01
01
ENDCHAR
STARTCHAR C078
ENCODING 78
SWIDTH 514 0
DWIDTH 15 0
BBX 15 19 1 0
BITMAP
0010
1F9E
31D0
60F0
4070
C030
C010
DC10
FC10
7C10
0010
0010
0010
0010
0010
0010
0010
0010
0010
ENDCHAR
STARTCHAR C079
ENCODING 79
SWIDTH 240 0
DWIDTH 7 0
BBX 21 26 -13 0
BITMAP
800000
800000
800000
7FE000
001F00
000080
000040
000040
0003F8
000040
000040
000040
000040
000040
000040
000040
000040
000040
000040
000040
000040
000040
000040
000040
000040
000040
ENDCHAR
STARTCHAR C080
ENCODING 80
SWIDTH 788 0
DWIDTH 23 0
BBX 20 19 2 0
BITMAP
002000
7C2000
C223C0
E12420
E12810
E13010
032010
0621E0
1C21E0
7021D0
703010
0C2810
022620
0121C0
00A000
006000
006000
002000
002000
ENDCHAR
STARTCHAR C081
ENCODING 81
SWIDTH 891 0
DWIDTH 26 0
BBX 22 18 2 0
BITMAP
007800
01C400
030470
0204F8
06058C
040504
458604
87C604
83C438
818438
800438
800604
400704
7FE58C
3FFCF8
001C70
000400
000400
ENDCHAR
STARTCHAR C082
ENCODING 82
SWIDTH 582 0
DWIDTH 17 0
BBX 18 22 0 -4
BITMAP
FFFFC0
008000
408000
408000
408000
408400
408E00
209A00
20F100
20E100
100100
100100
080100
0C0200
070E00
03FC00
00F000
000000
000000
00F000
00F000
00F000
ENDCHAR
STARTCHAR C083
ENCODING 83
SWIDTH 582 0
DWIDTH 17 0
BBX 18 19 0 0
BITMAP
000200
C0E3C0
F1F200
3B1A00
0E0E00
1F0600
3F8200
7FC200
7BC200
71C200
000200
000200
000200
000200
000200
000200
000200
000200
000200
ENDCHAR
STARTCHAR C084
ENCODING 84
SWIDTH 480 0
DWIDTH 14 0
BBX 17 26 -2 0
BITMAP
800000
800000
800000
7FE000
001800
000400
000200
000200
3FFF80
080000
080000
080000
080000
080000
081C00
081C00
081C00
081C00
080C00
080800
081800
083000
086000
04C000
078000
030000
ENDCHAR
STARTCHAR C085
ENCODING 85
SWIDTH 0 0
DWIDTH 0 0
BBX 13 10 -8 -9
BITMAP
7C00
C000
8000
8000
8400
7E00
0180
0040
0030
0008
ENDCHAR
STARTCHAR C086
ENCODING 86
SWIDTH 480 0
DWIDTH 14 0
BBX 15 22 0 -4
BITMAP
FFFE
2000
2000
2000
2000
2000
2070
2070
2070
2070
2030
2020
2060
20C0
2180
1300
1E00
0C00
0000
0E00
0E00
0E00
ENDCHAR
STARTCHAR C087
ENCODING 87
SWIDTH 0 0
DWIDTH 0 0
BBX 8 8 -7 -7
BITMAP
08
38
70
C0
70
3C
0E
03
ENDCHAR
STARTCHAR C088
ENCODING 88
SWIDTH 480 0
DWIDTH 14 0
BBX 15 18 0 0
BITMAP
FFFE
2000
2000
2000
2000
2000
2070
2070
2070
2070
2030
2020
2060
20C0
2180
1300
1E00
0C00
ENDCHAR
STARTCHAR C089
ENCODING 89
SWIDTH 548 0
DWIDTH 16 0
BBX 17 18 0 0
BITMAP
FFFF80
600400
180400
040400
020400
010400
030400
060400
0C0400
180400
380400
060400
018400
004400
002400
001400
000C00
000400
ENDCHAR
STARTCHAR C090
ENCODING 90
SWIDTH 514 0
DWIDTH 15 0
BBX 16 27 0 1
BITMAP
0400
0400
0400
0400
0400
0200
0200
0100
0100
0080
FFFF
00C0
00C0
00A0
00A0
0090
0190
0108
0308
0608
0C08
1808
3018
2010
2030
1060
0FC0
ENDCHAR
STARTCHAR C091
ENCODING 91
SWIDTH 205 0
DWIDTH 6 0
BBX 5 30 2 -6
BITMAP
F8
F8
C0
C0
C0
C0
C0
C0
C0
C0
C0
C0
C0
C0
C0
C0
C0
C0
C0
C0
C0
C0
C0
C0
C0
C0
C0
C0
F8
F8
ENDCHAR
STARTCHAR C092
ENCODING 92
SWIDTH 445 0
DWIDTH 13 0
BBX 9 11 2 13
BITMAP
1080
3180
6300
4200
C600
8400
E700
F780
F780
F780
6300
ENDCHAR
STARTCHAR C093
ENCODING 93
SWIDTH 205 0
DWIDTH 6 0
BBX 5 30 0 -6
BITMAP
F8
F8
F8
38
38
38
38
38
38
38
38
38
38
38
38
38
38
38
38
38
38
38
38
38
38
38
38
38
F8
F8
ENDCHAR
STARTCHAR C094
ENCODING 94
SWIDTH 0 0
DWIDTH 0 0
BBX 12 7 -5 19
BITMAP
0010
0060
0180
0700
0C00
3800
E000
ENDCHAR
STARTCHAR C095
ENCODING 95
SWIDTH 0 0
DWIDTH 0 0
BBX 6 5 -3 -8
BITMAP
C0
20
10
08
04
ENDCHAR
STARTCHAR C096
ENCODING 96
SWIDTH 308 0
DWIDTH 9 0
BBX 5 11 2 13
BITMAP
10
30
60
40
C0
80
F0
F8
F8
F8
70
ENDCHAR
STARTCHAR C097
ENCODING 97
SWIDTH 788 0
DWIDTH 23 0
BBX 24 19 0 -1
BITMAP
FFFFFF
030008
008008
41F808
23FE08
23E708
13E108
11C088
080088
080088
040088
060088
0301C8
01C348
00FE28
003C38
000018
000008
000008
ENDCHAR
STARTCHAR C098
ENCODING 98
SWIDTH 514 0
DWIDTH 15 0
BBX 16 18 0 0
BITMAP
FFFF
0008
0008
0038
00C8
0308
0C08
1808
3008
2008
1808
0608
0108
0088
0048
0028
0018
0008
ENDCHAR
STARTCHAR C099
ENCODING 99
SWIDTH 480 0
DWIDTH 14 0
BBX 15 18 0 0
BITMAP
FFFE
2000
3000
3800
2C00
2700
23C0
20F0
2030
2010
2030
2020
2060
20C0
2180
1300
1E00
0C00
ENDCHAR
STARTCHAR C100
ENCODING 100
SWIDTH 480 0
DWIDTH 14 0
BBX 15 18 0 0
BITMAP
FFFE
2000
2000
2000
2010
2070
21F0
2320
2E20
3860
3040
2040
0040
0040
0040
0040
0040
0020
ENDCHAR
STARTCHAR C101
ENCODING 101
SWIDTH 308 0
DWIDTH 9 0
BBX 10 19 0 -1
BITMAP
FFC0
0100
0200
0400
0800
0800
1000
1000
2000
2000
2000
2000
2000
2000
1000
1000
09C0
07C0
01C0
ENDCHAR
STARTCHAR C102
ENCODING 102
SWIDTH 651 0
DWIDTH 19 0
BBX 20 18 0 0
BITMAP
FFFFF0
600000
180000
040E00
020F80
010980
030840
060840
0C0BC0
180B80
180B80
060800
010800
008800
004800
002800
001800
000800
ENDCHAR
STARTCHAR C103
ENCODING 103
SWIDTH 548 0
DWIDTH 16 0
BBX 16 19 1 0
BITMAP
0008
000F
1F08
70C8
C028
BE18
E108
0108
0108
0308
0208
0608
0C08
0008
0008
0008
0008
0008
0008
ENDCHAR
STARTCHAR C104
ENCODING 104
SWIDTH 514 0
DWIDTH 15 0
BBX 16 20 0 -2
BITMAP
FFFF
0400
0400
0FE0
1E10
1C08
0008
0008
0018
0030
20E0
1F80
0C00
0300
0080
0040
0030
0008
0004
0002
ENDCHAR
STARTCHAR C105
ENCODING 105
SWIDTH 274 0
DWIDTH 8 0
BBX 19 26 0 0
BITMAP
07F000
1C0C00
300300
600080
400040
400020
400000
200000
FF8000
080000
080000
080000
080000
080000
080000
080000
080000
080000
080000
080000
080000
080000
080000
080000
080000
080000
ENDCHAR
STARTCHAR C106
ENCODING 106
SWIDTH 685 0
DWIDTH 20 0
BBX 21 18 0 0
BITMAP
FFFFF8
018000
038000
464000
4C3FC0
480040
480080
4C7080
27F880
238C80
200480
100480
180480
0E0880
07F880
01F040
000040
000040
ENDCHAR
STARTCHAR C107
ENCODING 107
SWIDTH 685 0
DWIDTH 20 0
BBX 21 18 0 0
BITMAP
FFFFF8
000800
000E00
003B80
00E8C0
018840
060860
0C0820
300820
3009E0
0C09E0
0309C0
008800
004800
002800
001800
001800
000800
ENDCHAR
STARTCHAR C108
ENCODING 108
SWIDTH 617 0
DWIDTH 18 0
BBX 19 18 0 0
BITMAP
FFFFE0
000100
000100
000100
000100
0F1900
10A500
206300
202100
270100
270100
1F0100
070100
000100
000100
000100
000100
000100
ENDCHAR
STARTCHAR C109
ENCODING 109
SWIDTH 548 0
DWIDTH 16 0
BBX 17 18 0 0
BITMAP
FFFF80
600400
400400
400400
200400
100400
080400
040400
020400
010400
070400
0F8400
0F6400
061400
000C00
000400
000400
000400
ENDCHAR
STARTCHAR C110
ENCODING 110
SWIDTH 514 0
DWIDTH 15 0
BBX 16 18 0 0
BITMAP
FFFF
0008
0008
0008
0008
0008
0008
0E08
1F88
3DC8
3C68
1828
0018
0018
0008
0008
0008
0008
ENDCHAR
STARTCHAR C111
ENCODING 111
SWIDTH 651 0
DWIDTH 19 0
BBX 17 26 1 1
BITMAP
020000
060000
040000
040000
060000
03E000
01FE00
001F00
000180
01F080
07F880
8E0C80
9E0480
9E0500
8C0F00
807E00
40FC00
40F800
406800
200400
200400
100400
180C00
0E1800
07F000
01E000
ENDCHAR
STARTCHAR C112
ENCODING 112
SWIDTH 582 0
DWIDTH 17 0
BBX 17 19 1 0
BITMAP
000400
000780
1F0400
30C400
F02400
087400
04CC00
078400
060400
0C0400
180400
000400
000400
000400
000400
000400
000400
000400
000400
ENDCHAR
STARTCHAR C113
ENCODING 113
SWIDTH 617 0
DWIDTH 18 0
BBX 15 19 1 1
BITMAP
0078
00FC
2184
3104
9F1C
8FF8
83E0
8200
820C
820C
423A
43F2
21C2
2002
1002
1806
0E0C
07F8
01F0
ENDCHAR
STARTCHAR C114
ENCODING 114
SWIDTH 514 0
DWIDTH 15 0
BBX 16 19 0 -1
BITMAP
FFFF
0008
0008
0038
00C8
0308
0C08
1808
3008
2008
1808
0608
0108
0088
0048
0628
0F18
0F08
0600
ENDCHAR
STARTCHAR C115
ENCODING 115
SWIDTH 582 0
DWIDTH 17 0
BBX 18 18 0 0
BITMAP
FFFFC0
3C0200
0E0200
030200
010200
010200
00F200
00CA00
018600
018200
230200
1E0200
000200
000200
000200
000200
000200
000200
ENDCHAR
STARTCHAR C116
ENCODING 116
SWIDTH 582 0
DWIDTH 17 0
BBX 18 17 0 1
BITMAP
FFFFC0
000000
000000
400000
40F800
41FC00
21E600
21E200
20C100
100100
100100
080100
0C0100
060200
038600
01FC00
007800
ENDCHAR
STARTCHAR C117
ENCODING 117
SWIDTH 0 0
DWIDTH 0 0
BBX 13 10 -9 -9
BITMAP
0200
0200
7A00
C600
8600
7D80
0040
0020
0010
0008
ENDCHAR
STARTCHAR C118
ENCODING 118
SWIDTH 617 0
DWIDTH 18 0
BBX 19 17 0 1
BITMAP
FFFFE0
000000
400000
400000
41C000
43E000
43E200
23E700
21FD00
20F880
100080
100080
080080
0C0180
070700
03FE00
00F800
ENDCHAR
STARTCHAR C119
ENCODING 119
SWIDTH 0 0
DWIDTH 0 0
BBX 10 7 -8 20
BITMAP
1E00
9E40
9E40
4040
60C0
3F80
1F00
ENDCHAR
STARTCHAR C120
ENCODING 120
SWIDTH 514 0
DWIDTH 15 0
BBX 14 18 2 0
BITMAP
383C
7820
7820
40E0
2320
1C20
1820
2020
C020
C020
3020
0C20
0220
0120
00A0
0060
0060
0020
ENDCHAR
STARTCHAR C121
ENCODING 121
SWIDTH 548 0
DWIDTH 16 0
BBX 17 19 0 -1
BITMAP
FFFF80
600400
180400
040400
020400
010400
030400
060400
0C0400
180400
380400
060400
018400
004400
002400
031400
078C00
078400
030000
ENDCHAR
STARTCHAR C122
ENCODING 122
SWIDTH 582 0
DWIDTH 17 0
BBX 16 19 2 0
BITMAP
0008
3E0F
6108
E088
E088
E088
0188
0308
0E08
3808
7008
1E08
0188
0048
0028
0018
0008
0008
0008
ENDCHAR
STARTCHAR C123
ENCODING 123
SWIDTH 582 0
DWIDTH 17 0
BBX 18 1 0 8
BITMAP
FFFFC0
ENDCHAR
STARTCHAR C124
ENCODING 124
SWIDTH 1097 0
DWIDTH 32 0
BBX 33 1 0 8
BITMAP
FFFFFFFF80
ENDCHAR
STARTCHAR C125
ENCODING 125
SWIDTH 514 0
DWIDTH 15 0
BBX 16 20 0 -2
BITMAP
FFFF
0400
07C0
0E20
1E10
1C10
0010
0030
1060
0FC0
0300
00C0
0020
0018
1E6C
2198
3C88
3C08
3C08
0008
ENDCHAR
STARTCHAR C126
ENCODING 126
SWIDTH 651 0
DWIDTH 19 0
BBX 17 6 1 6
BITMAP
1E0000
3F0000
7F8080
E1C300
80FE00
003C00
ENDCHAR
STARTCHAR C127
ENCODING 127
SWIDTH 960 0
DWIDTH 28 0
BBX 29 23 0 -4
BITMAP
00000040
FFFFFC78
00818240
00830140
008200C0
0083C0C0
00862040
008C1040
009A1040
20F21040
20E13040
20012040
10010040
18010040
0C020040
070E0040
03FC0040
00F00040
00000040
00700000
00700000
00700000
00700000
ENDCHAR
STARTCHAR C128
ENCODING 128
SWIDTH 685 0
DWIDTH 20 0
BBX 21 18 0 0
BITMAP
FFFFF8
000800
003F00
00E980
0388C0
0E09C0
1809C0
303FC0
18EBC0
0F8980
060880
0E0880
038B80
00CB80
006B80
003800
001800
000800
ENDCHAR
STARTCHAR C129
ENCODING 129
SWIDTH 548 0
DWIDTH 16 0
BBX 17 26 0 -1
BITMAP
C00000
380000
07E000
001800
000400
000200
000200
FFFF80
004000
01F000
075800
1C4800
304C00
387C00
0E7C00
037C00
01C000
00C000
01C000
03BC00
063C00
043C00
040C00
021800
03F000
01E000
ENDCHAR
STARTCHAR C130
ENCODING 130
SWIDTH 754 0
DWIDTH 22 0
BBX 23 17 0 1
BITMAP
FFFFFE
000000
00FC00
03FE00
070200
2E03E0
2E0610
2E7C70
2078F8
207CF8
107670
100200
080200
0C0600
060C00
03F800
01F000
ENDCHAR
STARTCHAR C131
ENCODING 131
SWIDTH 685 0
DWIDTH 20 0
BBX 21 18 0 0
BITMAP
FFFFF8
000800
003F00
00E980
0388C0
0E0840
180840
3039C0
18E9C0
0D89C0
0709C0
0E0800
038800
00C800
006800
003800
001800
000800
ENDCHAR
STARTCHAR C132
ENCODING 132
SWIDTH 685 0
DWIDTH 20 0
BBX 21 19 0 -1
BITMAP
FFFFF8
004040
01F840
074C40
1C4440
384440
0E5C40
035C40
01DC40
00C040
004040
007840
00FE40
00F740
0061C0
0000C0
000040
000040
000040
ENDCHAR
STARTCHAR C133
ENCODING 133
SWIDTH 822 0
DWIDTH 24 0
BBX 25 18 0 0
BITMAP
FFFFFF80
00000000
003E0000
00610000
00C10000
00817800
01818400
21C11C00
21E13E00
21E13E00
20C11C00
20010000
20010000
10010000
1C010000
0FFF0000
03FF0000
00010000
ENDCHAR
STARTCHAR C134
ENCODING 134
SWIDTH 651 0
DWIDTH 19 0
BBX 20 18 0 0
BITMAP
FFFFF0
000800
003E00
00EB00
038980
0E0880
038B80
00CB80
006B80
003800
001800
000800
3E6800
419800
788800
780800
380800
000800
ENDCHAR
STARTCHAR C135
ENCODING 135
SWIDTH 822 0
DWIDTH 24 0
BBX 25 18 0 0
BITMAP
FFFFFF80
10210000
10210000
3C210000
7F39C000
7C9FF000
38473800
00410800
00411C00
00413C00
01C13C00
03F91800
03C50000
01830000
00030000
00010000
00010000
00010000
ENDCHAR
STARTCHAR C136
ENCODING 136
SWIDTH 754 0
DWIDTH 22 0
BBX 23 21 0 -3
BITMAP
FFFFFE
104400
104400
3F6400
78BFC0
785FE0
304420
004410
0044F0
03C4F0
07E4F0
079400
030C00
03EC00
07F400
0F1C00
0F0C00
060400
000400
000400
000400
ENDCHAR
STARTCHAR C137
ENCODING 137
SWIDTH 857 0
DWIDTH 25 0
BBX 26 23 0 -5
BITMAP
FFFFFFC0
10420200
10420200
1F620200
3CBFE200
3C5FF200
18421A00
00420A00
00427A00
01C27A00
03F27A00
03CA0200
01860200
00060200
000F0200
001FC200
003EF200
003C3A00
00180E00
00000600
00000200
00000200
00000200
ENDCHAR
STARTCHAR C138
ENCODING 138
SWIDTH 651 0
DWIDTH 19 0
BBX 20 18 0 0
BITMAP
FFFFF0
004080
00F080
03D880
0E4C80
384480
385C80
0E5C80
035C80
01C080
00DC80
007380
10C080
098080
070080
000080
000080
000080
ENDCHAR
STARTCHAR C139
ENCODING 139
SWIDTH 651 0
DWIDTH 19 0
BBX 18 19 2 0
BITMAP
001000
1F1FC0
709000
C05000
803000
F03000
081000
041000
041000
0C1000
003E00
00F200
039200
061200
061200
039200
00D200
007200
003200
ENDCHAR
STARTCHAR C140
ENCODING 140
SWIDTH 548 0
DWIDTH 16 0
BBX 15 20 2 -1
BITMAP
0010
1F1E
7090
C050
8030
F030
0810
0410
0410
0C10
0010
0010
3E10
7F90
79D0
7870
3030
0010
0010
0010
ENDCHAR
STARTCHAR C141
ENCODING 141
SWIDTH 548 0
DWIDTH 16 0
BBX 15 19 2 0
BITMAP
0010
1F1E
7090
C050
8030
F030
0810
0410
0410
0C10
0030
00F0
0390
0610
0610
0390
00D0
0070
0030
ENDCHAR
STARTCHAR C142
ENCODING 142
SWIDTH 685 0
DWIDTH 20 0
BBX 20 20 1 -1
BITMAP
000800
1F0FF0
70C880
C02880
801880
F01880
080880
040880
040880
0C0880
000880
000880
003C80
007E80
007B80
007980
003080
000080
000080
000080
ENDCHAR
STARTCHAR C143
ENCODING 143
SWIDTH 582 0
DWIDTH 17 0
BBX 16 19 2 0
BITMAP
0008
1F0F
70C8
C028
8018
F818
0408
0208
0208
0E08
0008
0008
3CE8
4318
F118
F008
7008
7008
0008
ENDCHAR
STARTCHAR C144
ENCODING 144
SWIDTH 514 0
DWIDTH 15 0
BBX 16 20 0 -2
BITMAP
FFFF
1008
3008
2008
2088
1F88
0708
0C08
1808
1C08
0308
00C8
03E8
07F8
0F38
0F18
0608
0008
0008
0008
ENDCHAR
STARTCHAR C145
ENCODING 145
SWIDTH 582 0
DWIDTH 17 0
BBX 18 18 0 0
BITMAP
FFFFC0
004080
1F2080
3FD100
78EE00
782000
301000
003000
007800
03FC00
0E2600
182200
1C2E00
072E00
01AE00
00EE00
006000
002000
ENDCHAR
STARTCHAR C146
ENCODING 146
SWIDTH 1200 0
DWIDTH 35 0
BBX 34 20 2 0
BITMAP
01C0000000
03E0000000
423FFFFFC0
36E4188000
BFC4108000
8F07108000
840FCCE000
843F2FF800
4476139C00
47C8108400
4388108E00
2008109E00
2008709E00
1018FC8C00
1830F28000
0FE0618000
07C0018000
0000008000
0000008000
0000008000
ENDCHAR
STARTCHAR C147
ENCODING 147
SWIDTH 788 0
DWIDTH 23 0
BBX 24 19 0 0
BITMAP
007008
F0F80F
2D9808
2FF808
23E008
210808
111808
11F608
10E508
080488
0C0C88
061888
03F108
01E208
000608
000188
000048
000028
000018
ENDCHAR
STARTCHAR C148
ENCODING 148
SWIDTH 582 0
DWIDTH 17 0
BBX 18 18 0 0
BITMAP
FFFFC0
208200
108200
3E4400
393A00
388600
389E00
00B600
00E400
01C400
030400
060400
1C0400
300400
000400
000400
000400
000200
ENDCHAR
STARTCHAR C149
ENCODING 149
SWIDTH 891 0
DWIDTH 26 0
BBX 25 20 2 0
BITMAP
03C00000
07E00000
443FFF80
7CE80400
BFD80400
8F100400
88100400
88700400
88EFC400
4F918400
47130400
40160400
201C0400
303C0400
18630400
0FC0C400
07802400
00001400
00000C00
00000400
ENDCHAR
STARTCHAR C150
ENCODING 150
SWIDTH 651 0
DWIDTH 19 0
BBX 18 21 2 -1
BITMAP
038000
07C000
4C7FC0
78C200
BF8200
8F0200
880200
88E200
8FF200
471200
401200
203200
306200
1FC200
0FE200
03FA00
03DE00
018600
000200
000200
000200
ENDCHAR
STARTCHAR C151
ENCODING 151
SWIDTH 754 0
DWIDTH 22 0
BBX 23 18 0 0
BITMAP
FFFFFE
202000
302000
383000
2F3800
27EE00
20E7E0
20E1F0
20A010
21A010
232030
262020
1C2060
1820C0
002180
002700
001E00
001800
ENDCHAR
STARTCHAR C152
ENCODING 152
SWIDTH 754 0
DWIDTH 22 0
BBX 23 18 0 0
BITMAP
FFFFFE
202000
302000
383000
2F2C00
27E3E0
20E310
20E210
20A610
219C30
230060
2601C0
1C0F00
180200
000100
000080
000040
000020
ENDCHAR
STARTCHAR C153
ENCODING 153
SWIDTH 720 0
DWIDTH 21 0
BBX 22 21 0 -3
BITMAP
FFFFFC
204000
304000
3C6000
2F5FC0
23C220
20C620
21CC20
213860
2300C0
260380
1C1E00
180600
000100
000080
0000C0
0007A0
001C80
000780
000180
000080
ENDCHAR
STARTCHAR C154
ENCODING 154
SWIDTH 651 0
DWIDTH 19 0
BBX 20 18 0 0
BITMAP
FFFFF0
100000
180000
1F8000
17C000
104000
10C000
118000
13C700
0F2880
0E3380
272380
272380
203080
202880
182700
1FE000
07E000
ENDCHAR
STARTCHAR C155
ENCODING 155
SWIDTH 960 0
DWIDTH 28 0
BBX 29 18 0 0
BITMAP
FFFFFFF8
02000000
07000000
4CC04000
483FC000
48C1C000
4FD12000
27321FC0
30320080
18721880
0FD3F880
0789E480
00080480
00040480
00070880
0003F880
0000F080
00000080
ENDCHAR
STARTCHAR C156
ENCODING 156
SWIDTH 960 0
DWIDTH 28 0
BBX 29 22 0 -4
BITMAP
FFFFFFF8
02000000
07000000
4CC04000
483FC000
48C1C000
4FD12000
27321FC0
30320040
18721880
0FD3F880
0789E480
00080480
00040480
00070880
0003F980
0000F680
00000880
00001080
00000C40
00000340
000000C0
ENDCHAR
STARTCHAR C157
ENCODING 157
SWIDTH 1200 0
DWIDTH 35 0
BBX 36 19 0 0
BITMAP
0000000080
FFFFFFF0F0
01C0001080
0140001080
0240003080
262000F080
241FC39080
24008E1080
2610981080
23F8F01080
11E8F01080
10049C1080
0804871880
0C04819480
070880D480
03F8807280
00F0803180
0000801180
0000801080
ENDCHAR
STARTCHAR C158
ENCODING 158
SWIDTH 754 0
DWIDTH 22 0
BBX 23 16 0 2
BITMAP
FFFFFE
018000
034000
022000
4421E0
441210
441410
461C70
43F860
21E870
200410
100610
180510
0E08E0
07F800
01F000
ENDCHAR
STARTCHAR C159
ENCODING 159
SWIDTH 720 0
DWIDTH 21 0
BBX 22 21 0 -3
BITMAP
FFFFFC
038000
038000
048000
4C4000
483020
480FE0
4C2020
47F040
23D040
200840
100840
180840
0E11C0
07F240
01EC40
001040
003040
000C40
000340
0000C0
ENDCHAR
STARTCHAR C161
ENCODING 161
SWIDTH 582 0
DWIDTH 17 0
BBX 14 23 2 -4
BITMAP
00F0
7908
E608
E438
E438
0C38
1A08
3108
60F0
C100
8380
8640
8C40
78C0
0380
3E00
F000
0C00
0300
00C0
0020
0018
0004
ENDCHAR
STARTCHAR C162
ENCODING 162
SWIDTH 685 0
DWIDTH 20 0
BBX 16 19 2 0
BITMAP
001E
3C61
7E81
F307
F206
7507
7D01
1881
A062
A01E
B0C2
5FE4
4F34
2014
3014
1C34
0FE4
03C4
0004
ENDCHAR
STARTCHAR C163
ENCODING 163
SWIDTH 617 0
DWIDTH 18 0
BBX 14 18 2 0
BITMAP
0738
0CC4
189C
9C9C
9C9C
8084
40C4
7FB8
3F80
0190
0790
1C90
7090
7090
1C90
06D0
03B0
0190
ENDCHAR
STARTCHAR C164
ENCODING 164
SWIDTH 582 0
DWIDTH 17 0
BBX 18 28 0 -3
BITMAP
C00000
380000
07E000
001C00
000200
000100
000100
FFFFC0
080000
080000
080000
080000
080000
081E00
081E00
081E00
080600
080400
080C00
081800
083800
08EC00
2FC400
370400
180800
0E1800
07F000
01E000
ENDCHAR
STARTCHAR C165
ENCODING 165
SWIDTH 514 0
DWIDTH 15 0
BBX 18 29 -2 -3
BITMAP
800000
600000
1C0000
03E000
001C00
000200
000100
000100
3FFFC0
040000
040000
040000
040000
040000
041E00
041E00
041E00
040600
040400
040C00
041800
047000
07E400
039C00
007400
00E400
003C00
000C00
000400
ENDCHAR
STARTCHAR C166
ENCODING 166
SWIDTH 891 0
DWIDTH 26 0
BBX 27 17 0 1
BITMAP
FFFFFFE0
02004000
02004000
02004000
02604000
23E04000
23904600
20104E00
10107900
18307100
0FF00100
07D80100
00080100
000C0200
00070E00
0003FC00
0000F000
ENDCHAR
STARTCHAR C167
ENCODING 167
SWIDTH 788 0
DWIDTH 23 0
BBX 22 26 2 0
BITMAP
100000
0C0000
038000
007E00
0001C0
000020
000010
000010
3C7FFC
634000
C14000
E0C000
E04000
E04000
E040C0
0041E0
0041E0
0040E0
004060
004040
0040C0
0040C0
004180
004700
007E00
003800
ENDCHAR
STARTCHAR C168
ENCODING 168
SWIDTH 617 0
DWIDTH 18 0
BBX 14 27 2 1
BITMAP
0100
0300
0200
0200
0200
0200
0200
0200
0200
3D00
6300
C180
E0C0
E0A0
E090
0190
0108
0304
0204
0604
0C04
180C
3008
2018
2030
10E0
0F80
ENDCHAR
STARTCHAR C169
ENCODING 169
SWIDTH 617 0
DWIDTH 18 0
BBX 15 18 1 0
BITMAP
0F0C
1F9C
BCF2
BC62
BC22
8002
4006
403C
4078
407C
2034
2002
2002
1002
1806
0E1C
07F8
01E0
ENDCHAR
STARTCHAR C170
ENCODING 170
SWIDTH 514 0
DWIDTH 15 0
BBX 14 19 2 0
BITMAP
0020
3E3C
61A0
4060
E060
F020
F020
6020
0020
0020
3E20
61A0
4060
F020
F020
F020
0020
0020
0020
ENDCHAR
STARTCHAR C171
ENCODING 171
SWIDTH 651 0
DWIDTH 19 0
BBX 18 20 2 -1
BITMAP
004000
3E7FC0
614200
40C200
E04200
F04200
F04200
604200
004200
004200
004200
01E200
03F200
03FA00
03EE00
01C600
000200
000200
000200
000200
ENDCHAR
STARTCHAR C172
ENCODING 172
SWIDTH 582 0
DWIDTH 17 0
BBX 18 17 0 1
BITMAP
FFFFC0
000000
00FC00
03FE00
270200
2F0200
2F0600
2F3C00
207800
107C00
103400
100200
080200
0C0200
060600
03FC00
01F800
ENDCHAR
STARTCHAR C173
ENCODING 173
SWIDTH 548 0
DWIDTH 16 0
BBX 17 20 0 -2
BITMAP
FFFF80
000000
01F800
07FC00
2E0400
2E0400
2E6C00
2EF800
10F800
106C00
080400
0C0400
060C00
03F800
01F800
00F800
018800
00E800
003800
001800
ENDCHAR
STARTCHAR C174
ENCODING 174
SWIDTH 617 0
DWIDTH 18 0
BBX 17 19 2 0
BITMAP
000400
710780
CB8400
E64400
E64400
E24400
00C400
018400
070400
1C0400
380400
0F0400
00C400
002400
001400
000C00
000400
000400
000400
ENDCHAR
STARTCHAR C175
ENCODING 175
SWIDTH 582 0
DWIDTH 17 0
BBX 18 19 0 -1
BITMAP
FFFFC0
003800
407C00
20F400
30F200
186200
0C0200
060200
038400
01FC00
007C00
07C400
07F400
0F3C00
0F0C00
060400
000400
000400
000400
ENDCHAR
STARTCHAR C176
ENCODING 176
SWIDTH 582 0
DWIDTH 17 0
BBX 18 18 0 0
BITMAP
FFFFC0
003800
407C00
20F400
30F200
106200
080200
0C0200
060200
038400
01FC00
007C00
00F400
018400
00E400
003400
001C00
000C00
ENDCHAR
STARTCHAR C177
ENCODING 177
SWIDTH 754 0
DWIDTH 22 0
BBX 23 19 0 -1
BITMAP
FFFFFE
003C10
607E10
20FA10
10F910
187110
0C0110
060110
038210
01FE10
007C10
003E10
007F90
007DD0
003870
000030
000010
000010
000010
ENDCHAR
STARTCHAR C178
ENCODING 178
SWIDTH 651 0
DWIDTH 19 0
BBX 20 18 0 0
BITMAP
FFFFF0
000000
001F00
007080
00C080
018080
010080
216080
21F080
20F080
206080
200080
200080
100080
1C0080
0FFF80
03FF80
000080
ENDCHAR
STARTCHAR C179
ENCODING 179
SWIDTH 788 0
DWIDTH 23 0
BBX 24 18 0 0
BITMAP
FFFFFF
000000
003C00
006200
00C278
00827C
01827C
21C204
21E204
21E308
20C2F0
200200
200200
100200
1C0200
0FFE00
03FE00
000200
ENDCHAR
STARTCHAR C180
ENCODING 180
SWIDTH 857 0
DWIDTH 25 0
BBX 26 20 0 -1
BITMAP
00000200
FFE7E3C0
200C1200
20180A00
20100600
201E0600
20710200
21E08200
23408200
26418200
2C430200
38400200
30400200
20400200
00400200
00400200
00400200
00400200
00400200
00000200
ENDCHAR
STARTCHAR C181
ENCODING 181
SWIDTH 822 0
DWIDTH 24 0
BBX 25 18 0 0
BITMAP
FFFFFF80
20080400
20180400
20100400
20100400
20F00400
21CFC400
23418400
26430400
2C460400
384C0400
304C0400
20430400
0080C400
00802400
00401400
00400C00
00400400
ENDCHAR
STARTCHAR C182
ENCODING 182
SWIDTH 582 0
DWIDTH 17 0
BBX 18 18 0 0
BITMAP
FFFFC0
200000
200000
218000
278000
2D0600
390E00
311C00
013400
016400
01C400
018400
018400
000400
000400
000400
000400
000400
ENDCHAR
STARTCHAR C183
ENCODING 183
SWIDTH 617 0
DWIDTH 18 0
BBX 19 18 0 0
BITMAP
FFFFE0
200000
200000
200000
200000
20E000
231000
2C1000
307F00
21D100
031100
0E1100
0E1100
039100
00D100
007100
003100
001100
ENDCHAR
STARTCHAR C184
ENCODING 184
SWIDTH 514 0
DWIDTH 15 0
BBX 16 18 0 0
BITMAP
FFFF
2000
2000
2000
2000
20F0
2308
2408
3838
20E8
0388
0608
0708
01C8
0068
0038
0018
0018
ENDCHAR
STARTCHAR C185
ENCODING 185
SWIDTH 617 0
DWIDTH 18 0
BBX 19 19 0 -1
BITMAP
FFFFE0
100000
100000
10C000
13C000
1E4000
184000
108000
008000
218400
23CE00
23DA00
13F100
11E100
080100
0C0300
070E00
03FC00
00F000
ENDCHAR
STARTCHAR C186
ENCODING 186
SWIDTH 617 0
DWIDTH 18 0
BBX 19 19 0 -1
BITMAP
FFFFE0
100000
100000
10C000
13C000
1E4000
184000
108000
008000
018600
13CF00
23D900
23F100
11E100
180100
0FFF00
07FF00
000100
000100
ENDCHAR
STARTCHAR C187
ENCODING 187
SWIDTH 548 0
DWIDTH 16 0
BBX 17 19 0 -1
BITMAP
FFFF80
200400
200400
200400
20E400
23C400
264400
2C4400
384400
304400
008400
008400
01C400
03F400
03FC00
018C00
000400
000400
000400
ENDCHAR
STARTCHAR C188
ENCODING 188
SWIDTH 514 0
DWIDTH 15 0
BBX 15 20 1 -2
BITMAP
0E1E
1E10
1E70
11D0
0F10
1C10
3810
0C10
0710
0190
00D0
0070
3E30
7F90
F9D0
F870
7030
0010
0010
0010
ENDCHAR
STARTCHAR C189
ENCODING 189
SWIDTH 925 0
DWIDTH 27 0
BBX 26 18 2 0
BITMAP
381FFFC0
58100200
58300200
40F00E00
23903A00
1E10E200
18138200
30160200
E01C0200
E01C0200
38170200
0E11C200
03106200
01903200
00D01A00
00700E00
00300600
00300600
ENDCHAR
STARTCHAR C190
ENCODING 190
SWIDTH 788 0
DWIDTH 23 0
BBX 24 26 0 0
BITMAP
040000
030000
00E000
001F80
000070
000008
000004
000004
FFFFFF
001000
001000
001000
1E1000
1F9000
3DD030
3C7078
183078
001038
001018
001010
001030
001030
001060
0011C0
001F80
000E00
ENDCHAR
STARTCHAR C191
ENCODING 191
SWIDTH 617 0
DWIDTH 18 0
BBX 19 17 0 1
BITMAP
FFFFE0
00C000
00C000
7EC000
7FC000
71C400
70CC00
00DA00
20F200
20E100
200100
100100
180100
0C0200
070E00
03FC00
00F000
ENDCHAR
STARTCHAR C192
ENCODING 192
SWIDTH 617 0
DWIDTH 18 0
BBX 19 19 0 -1
BITMAP
FFFFE0
000100
000100
000100
070100
0F8100
4FE300
267E00
201C00
103E00
103F00
083D00
081880
040080
060080
030080
01C100
00FF00
003E00
ENDCHAR
STARTCHAR C193
ENCODING 193
SWIDTH 582 0
DWIDTH 17 0
BBX 18 21 0 -3
BITMAP
FFFFC0
000800
000800
1C0800
3E0800
3F8800
19F800
007C00
01FE00
138200
170200
170600
177C00
087800
087C00
080600
040200
060200
030600
01FC00
00F800
ENDCHAR
STARTCHAR C194
ENCODING 194
SWIDTH 582 0
DWIDTH 17 0
BBX 18 21 0 -3
BITMAP
FFFFC0
000200
000200
0E0200
1F8200
5FC600
2E7C00
203C00
107E00
107A00
087900
0C3100
060100
038300
01FE00
007C00
003C00
007400
001C00
000C00
000400
ENDCHAR
STARTCHAR C195
ENCODING 195
SWIDTH 617 0
DWIDTH 18 0
BBX 19 20 0 -2
BITMAP
FFFFE0
000100
000100
070100
0F8100
0FE300
067E00
003E00
00E100
018100
110100
21E100
21E100
20E100
200100
100100
180100
0FFF00
07FF00
000100
ENDCHAR
STARTCHAR C196
ENCODING 196
SWIDTH 582 0
DWIDTH 17 0
BBX 18 20 0 -2
BITMAP
FFFFC0
000800
000800
1C0800
3E0800
3F8800
19F800
01F800
03C400
03C200
038200
000200
000600
020C00
01F800
006000
001000
000C00
000200
000100
ENDCHAR
STARTCHAR C197
ENCODING 197
SWIDTH 685 0
DWIDTH 20 0
BBX 21 18 0 0
BITMAP
FFFFF8
006000
006000
006000
3E6000
3F60E0
79E1C0
78E340
306E40
007840
007040
007040
002040
000040
000040
000040
000040
000040
ENDCHAR
STARTCHAR C198
ENCODING 198
SWIDTH 617 0
DWIDTH 18 0
BBX 19 18 0 0
BITMAP
FFFFE0
000800
000800
0F0800
1FC800
3CE800
3C3800
181800
000F00
007900
01C900
070900
060900
038900
00C900
006900
003900
001900
ENDCHAR
STARTCHAR C199
ENCODING 199
SWIDTH 514 0
DWIDTH 15 0
BBX 16 19 0 -1
BITMAP
FFFF
0008
0008
0008
1F08
3FC8
7CE8
7C38
3818
0008
0008
3F08
7FC8
7CE8
7C38
3818
0008
0008
0008
ENDCHAR
STARTCHAR C200
ENCODING 200
SWIDTH 548 0
DWIDTH 16 0
BBX 17 18 0 0
BITMAP
FFFF80
000400
000400
000400
1F8400
3FE400
7C7400
7C1C00
380C00
000400
001C00
00F400
01C400
018400
00E400
003400
001C00
000C00
ENDCHAR
STARTCHAR C201
ENCODING 201
SWIDTH 651 0
DWIDTH 19 0
BBX 20 19 0 -1
BITMAP
FFFFF0
001080
001080
3E1080
7F9080
7DD080
7C7080
383080
001080
001080
001080
007C80
00FE80
00FB80
007180
000080
000080
000080
000080
ENDCHAR
STARTCHAR C202
ENCODING 202
SWIDTH 685 0
DWIDTH 20 0
BBX 21 18 0 0
BITMAP
FFFFF8
0F0040
018040
008040
004040
1E4040
3F2040
39A040
38BE40
007140
0060C0
08C040
098040
070040
000040
000040
000040
000040
ENDCHAR
STARTCHAR C203
ENCODING 203
SWIDTH 788 0
DWIDTH 23 0
BBX 23 26 1 0
BITMAP
080000
060000
01C000
003F00
0000E0
000010
000008
000008
003FFE
1E2000
712000
E1A000
136000
162000
1C2060
3020F0
0020F0
002070
002030
002020
002060
002060
0020C0
002380
003F00
001C00
ENDCHAR
STARTCHAR C204
ENCODING 204
SWIDTH 651 0
DWIDTH 19 0
BBX 19 20 1 -1
BITMAP
000200
0FC3E0
382200
701200
487A00
04C600
858200
870200
4C0200
483A00
207E00
207E00
107A00
103100
080100
0C0100
060100
038200
01FE00
007C00
ENDCHAR
STARTCHAR C205
ENCODING 205
SWIDTH 582 0
DWIDTH 17 0
BBX 16 20 2 -1
BITMAP
0008
1F0F
7088
C048
F0E8
0998
0F08
0C08
1808
3008
0008
0008
1F08
3FC8
3EE8
3E38
1C18
0008
0008
0008
ENDCHAR
STARTCHAR C206
ENCODING 206
SWIDTH 582 0
DWIDTH 17 0
BBX 16 20 2 -1
BITMAP
0008
1F0F
7088
E048
90E8
0B98
0E08
0C08
1808
1008
0008
1F08
7088
E048
91E8
0B18
0E08
1C08
3808
0008
ENDCHAR
STARTCHAR C207
ENCODING 207
SWIDTH 582 0
DWIDTH 17 0
BBX 16 19 2 0
BITMAP
0008
1F0F
7088
C048
F0E8
0998
0F08
0C08
1808
3008
0008
1E08
21E8
4198
7808
7808
7808
0008
0008
ENDCHAR
STARTCHAR C208
ENCODING 208
SWIDTH 685 0
DWIDTH 20 0
BBX 21 18 0 0
BITMAP
FFFFF8
0F0040
018040
00C040
1E4040
314040
2BA040
0E2040
0C3E40
083140
0060C0
08C040
098040
070040
000040
000040
000040
000040
ENDCHAR
STARTCHAR C209
ENCODING 209
SWIDTH 685 0
DWIDTH 20 0
BBX 21 20 0 -2
BITMAP
FFFFF8
080000
060780
0107C0
008440
018420
030420
070420
00C5E0
0025C0
0015C0
000C00
0F0C00
10F400
204C00
3C0400
3C0400
1C0400
000400
000400
ENDCHAR
STARTCHAR C210
ENCODING 210
SWIDTH 685 0
DWIDTH 20 0
BBX 21 18 0 0
BITMAP
FFFFF8
018000
078000
0DC000
39BFE0
398040
4F90C0
43B0C0
41E880
21CC80
200480
100480
180480
0E0880
07F880
01F000
000040
000040
ENDCHAR
STARTCHAR C211
ENCODING 211
SWIDTH 651 0
DWIDTH 19 0
BBX 20 18 0 0
BITMAP
FFFFF0
004000
00C000
07C000
1C4000
3041C0
784380
0E4680
035C80
01F080
00E080
00E080
004080
000080
000080
000080
000080
000080
ENDCHAR
STARTCHAR C212
ENCODING 212
SWIDTH 651 0
DWIDTH 19 0
BBX 20 18 0 0
BITMAP
FFFFF0
000800
007800
01C800
070800
1C0800
300F00
387880
0DC880
070880
0E0880
0E0880
038880
00C880
006880
003880
001880
001880
ENDCHAR
STARTCHAR C213
ENCODING 213
SWIDTH 548 0
DWIDTH 16 0
BBX 17 18 0 0
BITMAP
FFFF80
000400
003C00
01E400
070400
1C0400
300400
383C00
0DE400
070400
0C0400
1C0400
070400
01C400
006400
003400
001C00
000C00
ENDCHAR
STARTCHAR C214
ENCODING 214
SWIDTH 548 0
DWIDTH 16 0
BBX 17 18 0 0
BITMAP
FFFF80
000400
001C00
00F400
038400
0E0400
0E0400
038400
00E400
003400
001C00
0F7C00
108C00
388400
3C0400
3C0400
180400
000400
ENDCHAR
STARTCHAR C215
ENCODING 215
SWIDTH 685 0
DWIDTH 20 0
BBX 21 19 0 -1
BITMAP
FFFFF8
000000
000000
000000
000100
000380
11C6C0
23FC40
23F840
21E040
200040
200040
100040
1C0040
0FFF40
03FFC0
0000C0
000040
000040
ENDCHAR
STARTCHAR C216
ENCODING 216
SWIDTH 582 0
DWIDTH 17 0
BBX 18 20 0 -2
BITMAP
FFFFC0
000000
030800
278C00
279C00
23F200
11E200
180600
0E0C00
07FC00
01F400
000400
0F0400
10B400
204C00
3C0400
3C0400
1C0400
000400
000400
ENDCHAR
STARTCHAR C217
ENCODING 217
SWIDTH 548 0
DWIDTH 16 0
BBX 17 19 0 -1
BITMAP
FFFF80
080400
080600
080200
3E0200
7F0200
798600
30FC00
007C00
000400
000400
1F8400
3FE400
3C7400
3C1C00
180C00
000400
000400
000400
ENDCHAR
STARTCHAR C218
ENCODING 218
SWIDTH 994 0
DWIDTH 29 0
BBX 30 19 0 0
BITMAP
00000020
FFF0F83C
18138620
080E0120
3C0E03A0
7F190E60
7BF09820
30E0B020
0000E020
0001C020
00018020
00000020
00000020
00000020
00000020
00000020
00000020
00000020
00000020
ENDCHAR
STARTCHAR C219
ENCODING 219
SWIDTH 960 0
DWIDTH 28 0
BBX 29 19 0 -1
BITMAP
FFFFFFF8
08080000
080C0000
1C040700
3E0407C0
3F8C04C0
19FE0420
00710420
00030420
000605E0
000405C0
000C05C0
000E0400
00018400
00006400
00001400
00000C00
00000400
00000400
ENDCHAR
STARTCHAR C220
ENCODING 220
SWIDTH 548 0
DWIDTH 16 0
BBX 17 18 0 0
BITMAP
FFFF80
080400
080200
0C0200
3E0200
7F0200
7D8600
38FC00
007C00
003C00
01E400
038400
070400
018400
00E400
003400
001C00
000C00
ENDCHAR
STARTCHAR C221
ENCODING 221
SWIDTH 651 0
DWIDTH 19 0
BBX 20 19 0 -1
BITMAP
FFFFF0
040200
040100
040100
1F0100
3F8100
3CC300
187E00
21BE00
23C700
23CD00
11F880
11F080
080080
0C0080
060180
038700
01FE00
007800
ENDCHAR
STARTCHAR C222
ENCODING 222
SWIDTH 617 0
DWIDTH 18 0
BBX 19 19 0 -1
BITMAP
FFFFE0
080400
040200
1E0200
3F0200
3D8600
18FC00
007800
018600
03CF00
23D900
23F100
21E100
100100
180100
0FFF00
07FF00
000100
000100
ENDCHAR
STARTCHAR C223
ENCODING 223
SWIDTH 685 0
DWIDTH 20 0
BBX 21 19 0 -1
BITMAP
FFFFF8
080440
080240
080240
3E0240
7F0240
798640
30FC40
007C40
000440
001E40
003F40
003DC0
003CC0
0018C0
000040
000040
000040
000040
ENDCHAR
STARTCHAR C224
ENCODING 224
SWIDTH 582 0
DWIDTH 17 0
BBX 18 18 0 0
BITMAP
FFFFC0
080200
040300
040100
1E0100
3F0100
3DC300
18FE00
003E00
000200
0F0200
10BA00
204600
3E0200
3E0200
1E0200
000200
000200
ENDCHAR
STARTCHAR C225
ENCODING 225
SWIDTH 651 0
DWIDTH 19 0
BBX 20 18 0 0
BITMAP
FFFFF0
000800
000800
1E0800
216800
409800
788800
780800
383E00
38EB00
038980
060880
0F0B80
01CB80
006B80
003B80
001800
000800
ENDCHAR
STARTCHAR C226
ENCODING 226
SWIDTH 582 0
DWIDTH 17 0
BBX 18 18 0 0
BITMAP
FFFFC0
000200
000200
0F0200
10BA00
204600
384200
3C0200
3C0200
1BE200
0E1200
180A00
1E0600
110200
008200
008200
018200
010200
ENDCHAR
STARTCHAR C227
ENCODING 227
SWIDTH 582 0
DWIDTH 17 0
BBX 18 21 0 -3
BITMAP
FFFFC0
000400
000400
0F7400
108C00
384400
3C0400
3C0400
19E400
03F400
171E00
178E00
148200
108E00
099E00
091E00
040D00
060100
038300
01FE00
007C00
ENDCHAR
STARTCHAR C228
ENCODING 228
SWIDTH 788 0
DWIDTH 23 0
BBX 24 26 0 0
BITMAP
040000
030000
00E000
001F80
000070
000008
000004
000004
FFFFFF
001000
001000
0C1000
12D000
213000
391030
381078
381078
381038
001018
001010
001030
001030
001060
0011C0
001F80
000E00
ENDCHAR
STARTCHAR C229
ENCODING 229
SWIDTH 720 0
DWIDTH 21 0
BBX 22 17 0 1
BITMAP
FFFFFC
001000
0EF000
119000
399000
381080
381180
381340
041E40
041C20
040020
020020
030020
018040
00E1C0
007F80
001E00
ENDCHAR
STARTCHAR C230
ENCODING 230
SWIDTH 582 0
DWIDTH 17 0
BBX 18 18 0 0
BITMAP
FFFFC0
000200
0F0200
10BA00
204600
2C0200
3E0200
1E0200
0C0200
000200
0FC200
383200
783A00
046600
05C200
070200
0E0200
000200
ENDCHAR
STARTCHAR C231
ENCODING 231
SWIDTH 582 0
DWIDTH 17 0
BBX 18 18 0 0
BITMAP
FFFFC0
000200
000200
000200
000200
0F3A00
10C600
384600
3C0200
3C0600
181E00
007200
01C200
01C200
007200
001A00
000E00
000600
ENDCHAR
STARTCHAR C232
ENCODING 232
SWIDTH 685 0
DWIDTH 20 0
BBX 21 19 0 -1
BITMAP
FFFFF8
000440
000440
0E0440
117440
208C40
380440
3C0440
3C0440
180440
000440
001E40
003F40
003DC0
003CC0
001840
000040
000040
000040
ENDCHAR
STARTCHAR C233
ENCODING 233
SWIDTH 617 0
DWIDTH 18 0
BBX 19 18 0 0
BITMAP
FFFFE0
000100
000100
0F8100
105D00
202300
3C2100
3C0100
1C0100
1C0100
0F8100
105D00
202300
3C0100
3C0100
1C0100
000100
000100
ENDCHAR
STARTCHAR C234
ENCODING 234
SWIDTH 857 0
DWIDTH 25 0
BBX 26 19 0 0
BITMAP
00040000
F0E7FFC0
3DF40000
0F140000
0F8E0000
1FCF0000
3FE5E000
3DE4FC00
38E41E00
00040200
00040200
00040600
00040400
00040C00
00041800
00043000
0004E000
0003C000
00030000
ENDCHAR
STARTCHAR C235
ENCODING 235
SWIDTH 891 0
DWIDTH 26 0
BBX 27 19 0 0
BITMAP
00020000
F8F3FFE0
3DFA0000
078E0000
0FC70000
1FE2C000
1FE23E00
1FE23100
1CE22100
00026100
0001C300
00000600
00001C00
0000F000
00002000
00001000
00000800
00000400
00000200
ENDCHAR
STARTCHAR C236
ENCODING 236
SWIDTH 582 0
DWIDTH 17 0
BBX 18 20 0 -1
BITMAP
000200
F8F3C0
3DFA00
078E00
0FC600
1FE200
1FE200
1FE200
1CE200
000200
000200
000200
07C200
0FF200
0FBA00
0F8E00
070600
000200
000200
000200
ENDCHAR
STARTCHAR C237
ENCODING 237
SWIDTH 720 0
DWIDTH 21 0
BBX 22 20 0 -1
BITMAP
000200
F8E3FC
3DF220
071A20
0F8E20
1FC620
3FE220
3DE220
38E220
000220
000220
000220
000F20
001FA0
001EE0
001E60
000C20
000020
000020
000020
ENDCHAR
STARTCHAR C238
ENCODING 238
SWIDTH 582 0
DWIDTH 17 0
BBX 18 19 0 0
BITMAP
000200
F8F3C0
3DFA00
078E00
0FC600
1FE200
1FE200
1FE200
1CE200
000200
000200
078200
087A00
106600
1E0200
1E0200
1E0200
000200
000200
ENDCHAR
STARTCHAR C239
ENCODING 239
SWIDTH 582 0
DWIDTH 17 0
BBX 18 19 0 0
BITMAP
000200
F8F3C0
3DFA00
078E00
0FC600
1FE200
1FE200
1FE200
1CE200
000200
000200
001E00
007200
01C200
01C200
007200
001A00
000E00
000600
ENDCHAR
STARTCHAR C240
ENCODING 240
SWIDTH 582 0
DWIDTH 17 0
BBX 18 18 0 0
BITMAP
FFFFC0
03C000
0E2000
1C2000
322000
216000
20E000
23F800
1F2C00
1C2600
302200
382E00
0E2E00
032E00
01A000
00E000
006000
006000
ENDCHAR
STARTCHAR C241
ENCODING 241
SWIDTH 822 0
DWIDTH 24 0
BBX 25 20 0 -2
BITMAP
FFFFFF80
03E00000
0E100000
1E100000
31100000
20B00000
207F0000
21F08000
1F608000
08C0F800
08F08C00
08F09E00
08709E00
08008C00
08008000
04008000
07008000
03FF8000
00FF8000
00008000
ENDCHAR
STARTCHAR C242
ENCODING 242
SWIDTH 548 0
DWIDTH 16 0
BBX 17 26 0 -1
BITMAP
C00000
380000
07E000
001800
000400
000200
000200
FFFF80
03E000
0E1000
1C1000
321000
213000
20A000
206000
23C000
1F1800
0C3C00
183C00
101C00
100C00
100800
081800
0C3000
07E000
03C000
ENDCHAR
STARTCHAR C243
ENCODING 243
SWIDTH 617 0
DWIDTH 18 0
BBX 19 27 0 1
BITMAP
004000
00C000
008000
008000
008000
008000
008000
008000
008000
004000
FFFFE0
03E000
0E3000
1C2800
142400
326400
214200
20C100
238100
1F8100
030100
060300
0C0200
080600
080C00
043800
03E000
ENDCHAR
STARTCHAR C244
ENCODING 244
SWIDTH 788 0
DWIDTH 23 0
BBX 22 18 0 0
BITMAP
FFF800
6008F0
180908
040A04
020C04
018804
034878
062878
0C1874
380C04
380A04
060988
018870
004800
002800
001800
000800
000800
ENDCHAR
STARTCHAR C245
ENCODING 245
SWIDTH 891 0
DWIDTH 26 0
BBX 27 19 0 0
BITMAP
00000100
FF83E1E0
0E4E1100
18580900
34781D00
22C43300
21826100
2302C100
1E038100
00060100
00040100
00000100
00000100
00000100
00000100
00000100
00000100
00000100
00000100
ENDCHAR
STARTCHAR C246
ENCODING 246
SWIDTH 822 0
DWIDTH 24 0
BBX 25 18 0 0
BITMAP
FFFFFF80
03C00000
0E200000
1C207800
32207C00
21604400
20D04200
23884200
1E184200
00305E00
00605C00
00405C00
00E04000
00184000
00064000
00014000
0000C000
00004000
ENDCHAR
STARTCHAR C247
ENCODING 247
SWIDTH 582 0
DWIDTH 17 0
BBX 18 19 0 -1
BITMAP
FFFFC0
03C200
0E2200
1C2200
322200
216200
20C200
23C200
1E4200
004200
03C200
07F200
07FA00
038E00
000600
000200
000200
000200
000200
ENDCHAR
STARTCHAR C248
ENCODING 248
SWIDTH 754 0
DWIDTH 22 0
BBX 23 18 0 0
BITMAP
FFFFFE
01C180
01C1C0
03E0C0
0370C0
763DC0
3C0F80
0003C0
000F60
003930
006110
00C110
007170
001970
000D70
000700
000300
000100
ENDCHAR
STARTCHAR C249
ENCODING 249
SWIDTH 822 0
DWIDTH 24 0
BBX 25 20 0 -2
BITMAP
FFFFFF80
01838000
01C18000
03C18000
02E18000
36718000
3C3F0000
00308000
00608000
00C0F800
08F08C00
08F09E00
08709E00
08708C00
08008000
04008000
07008000
03FF8000
00FF8000
00008000
ENDCHAR
STARTCHAR C250
ENCODING 250
SWIDTH 754 0
DWIDTH 22 0
BBX 23 22 0 -4
BITMAP
FFFFFE
01C180
01C1C0
03E0C0
0370C0
763CC0
3C0F80
000100
000FC0
003960
006130
00E170
003970
000D70
000700
03CF00
043300
0F1100
0F0100
070100
070100
000100
ENDCHAR
STARTCHAR C251
ENCODING 251
SWIDTH 788 0
DWIDTH 23 0
BBX 24 19 0 0
BITMAP
000008
FFF80F
031C08
038E08
078608
07C608
36E608
3C7C08
000708
007488
007488
007888
007108
000608
000808
000708
0000C8
000028
000018
ENDCHAR
STARTCHAR C252
ENCODING 252
SWIDTH 822 0
DWIDTH 24 0
BBX 25 25 0 0
BITMAP
03000000
00E00000
001FC000
00003800
00000400
00000200
00000200
FFFFFF80
3C0C0000
060C0000
020C0000
020C0000
010C0000
01EC1800
019C3C00
030C3C00
260C1C00
1C0C0C00
000C0800
000C1800
000C1800
000C3000
0008E000
000FC000
00070000
ENDCHAR
STARTCHAR C253
ENCODING 253
SWIDTH 685 0
DWIDTH 20 0
BBX 21 19 0 -1
BITMAP
FFFFF8
00E0C0
00E0E0
00E060
01F060
413860
3B1C60
3E0FC0
101F80
101EC0
080C40
0C0020
040020
020020
030020
018040
00E0C0
007F80
001F00
ENDCHAR
STARTCHAR C254
ENCODING 254
SWIDTH 582 0
DWIDTH 17 0
BBX 18 21 0 -3
BITMAP
FFFFC0
030E00
038700
078300
05C300
6CE300
787E00
007C00
01FE00
138200
170200
170600
177C00
087800
087C00
080600
040200
060200
030600
01FC00
00F800
ENDCHAR
STARTCHAR C255
ENCODING 255
SWIDTH 651 0
DWIDTH 19 0
BBX 20 20 0 -2
BITMAP
FFFFF0
018380
01C180
03C180
02E180
367180
3C3F00
003080
006080
00C080
10E080
20F080
20F080
206080
200080
100080
1C0080
0FFF80
03FF80
000080
ENDCHAR
ENDFONT
